<mxfile host="app.diagrams.net" agent="Mozilla/5.0 (Macintosh; Intel Mac OS X 10_15_7) AppleWebKit/537.36 (KHTML, like Gecko) Chrome/131.0.0.0 Safari/537.36" version="26.0.5" pages="5">
  <diagram name="use-case-diagram" id="o4Nj0E1KFj91gTsb6qZP">
    <mxGraphModel dx="1283" dy="965" grid="1" gridSize="10" guides="1" tooltips="1" connect="1" arrows="1" fold="1" page="1" pageScale="1" pageWidth="827" pageHeight="1169" math="0" shadow="0">
      <root>
        <mxCell id="0" />
        <mxCell id="1" parent="0" />
        <mxCell id="OQmlAPTLh4rIIu73BY2G-8" style="rounded=0;orthogonalLoop=1;jettySize=auto;html=1;" edge="1" parent="1" source="OQmlAPTLh4rIIu73BY2G-1" target="OQmlAPTLh4rIIu73BY2G-5">
          <mxGeometry relative="1" as="geometry" />
        </mxCell>
        <mxCell id="OQmlAPTLh4rIIu73BY2G-9" style="rounded=0;orthogonalLoop=1;jettySize=auto;html=1;" edge="1" parent="1" source="OQmlAPTLh4rIIu73BY2G-1" target="OQmlAPTLh4rIIu73BY2G-6">
          <mxGeometry relative="1" as="geometry" />
        </mxCell>
        <mxCell id="OQmlAPTLh4rIIu73BY2G-10" style="rounded=0;orthogonalLoop=1;jettySize=auto;html=1;" edge="1" parent="1" source="OQmlAPTLh4rIIu73BY2G-1" target="OQmlAPTLh4rIIu73BY2G-7">
          <mxGeometry relative="1" as="geometry" />
        </mxCell>
        <mxCell id="OQmlAPTLh4rIIu73BY2G-1" value="Student" style="shape=umlActor;verticalLabelPosition=bottom;verticalAlign=top;html=1;outlineConnect=0;" vertex="1" parent="1">
          <mxGeometry x="90" y="310" width="30" height="60" as="geometry" />
        </mxCell>
        <mxCell id="OQmlAPTLh4rIIu73BY2G-11" style="edgeStyle=none;shape=connector;rounded=0;orthogonalLoop=1;jettySize=auto;html=1;strokeColor=default;align=center;verticalAlign=middle;fontFamily=Helvetica;fontSize=11;fontColor=default;labelBackgroundColor=default;endArrow=classic;" edge="1" parent="1" source="OQmlAPTLh4rIIu73BY2G-4" target="OQmlAPTLh4rIIu73BY2G-5">
          <mxGeometry relative="1" as="geometry" />
        </mxCell>
        <mxCell id="OQmlAPTLh4rIIu73BY2G-12" style="edgeStyle=none;shape=connector;rounded=0;orthogonalLoop=1;jettySize=auto;html=1;strokeColor=default;align=center;verticalAlign=middle;fontFamily=Helvetica;fontSize=11;fontColor=default;labelBackgroundColor=default;endArrow=classic;" edge="1" parent="1" source="OQmlAPTLh4rIIu73BY2G-4" target="OQmlAPTLh4rIIu73BY2G-6">
          <mxGeometry relative="1" as="geometry" />
        </mxCell>
        <mxCell id="OQmlAPTLh4rIIu73BY2G-13" style="edgeStyle=none;shape=connector;rounded=0;orthogonalLoop=1;jettySize=auto;html=1;strokeColor=default;align=center;verticalAlign=middle;fontFamily=Helvetica;fontSize=11;fontColor=default;labelBackgroundColor=default;endArrow=classic;" edge="1" parent="1" source="OQmlAPTLh4rIIu73BY2G-4" target="OQmlAPTLh4rIIu73BY2G-7">
          <mxGeometry relative="1" as="geometry" />
        </mxCell>
        <mxCell id="OQmlAPTLh4rIIu73BY2G-4" value="Teacher" style="shape=umlActor;verticalLabelPosition=bottom;verticalAlign=top;html=1;outlineConnect=0;" vertex="1" parent="1">
          <mxGeometry x="520" y="310" width="30" height="60" as="geometry" />
        </mxCell>
        <mxCell id="OQmlAPTLh4rIIu73BY2G-5" value="Create/Read/Update/Delete Question" style="ellipse;whiteSpace=wrap;html=1;" vertex="1" parent="1">
          <mxGeometry x="220" y="170" width="200" height="80" as="geometry" />
        </mxCell>
        <mxCell id="OQmlAPTLh4rIIu73BY2G-6" value="Create Exam" style="ellipse;whiteSpace=wrap;html=1;" vertex="1" parent="1">
          <mxGeometry x="220" y="300" width="200" height="80" as="geometry" />
        </mxCell>
        <mxCell id="OQmlAPTLh4rIIu73BY2G-7" value="Do Exam" style="ellipse;whiteSpace=wrap;html=1;" vertex="1" parent="1">
          <mxGeometry x="220" y="430" width="200" height="80" as="geometry" />
        </mxCell>
      </root>
    </mxGraphModel>
  </diagram>
  <diagram id="mJ00HGnHXlxDguQ8vi1s" name="create-question">
    <mxGraphModel dx="1140" dy="858" grid="1" gridSize="10" guides="1" tooltips="1" connect="1" arrows="1" fold="1" page="1" pageScale="1" pageWidth="827" pageHeight="1169" math="0" shadow="0">
      <root>
        <mxCell id="0" />
        <mxCell id="1" parent="0" />
        <mxCell id="QXzw2-RkZq7Qz00sRfXT-2" value="Teacher" style="shape=umlLifeline;perimeter=lifelinePerimeter;whiteSpace=wrap;html=1;container=1;dropTarget=0;collapsible=0;recursiveResize=0;outlineConnect=0;portConstraint=eastwest;newEdgeStyle={&quot;curved&quot;:0,&quot;rounded&quot;:0};participant=umlActor;fontFamily=Helvetica;fontSize=11;fontColor=default;labelBackgroundColor=default;" vertex="1" parent="1">
          <mxGeometry x="120" y="100" width="20" height="620" as="geometry" />
        </mxCell>
        <mxCell id="QXzw2-RkZq7Qz00sRfXT-3" value="UI" style="shape=umlLifeline;perimeter=lifelinePerimeter;whiteSpace=wrap;html=1;container=1;dropTarget=0;collapsible=0;recursiveResize=0;outlineConnect=0;portConstraint=eastwest;newEdgeStyle={&quot;curved&quot;:0,&quot;rounded&quot;:0};participant=umlBoundary;fontFamily=Helvetica;fontSize=11;fontColor=default;labelBackgroundColor=default;" vertex="1" parent="1">
          <mxGeometry x="273" y="100" width="50" height="620" as="geometry" />
        </mxCell>
        <mxCell id="QXzw2-RkZq7Qz00sRfXT-7" value="" style="html=1;points=[[0,0,0,0,5],[0,1,0,0,-5],[1,0,0,0,5],[1,1,0,0,-5]];perimeter=orthogonalPerimeter;outlineConnect=0;targetShapes=umlLifeline;portConstraint=eastwest;newEdgeStyle={&quot;curved&quot;:0,&quot;rounded&quot;:0};fontFamily=Helvetica;fontSize=11;fontColor=default;labelBackgroundColor=default;" vertex="1" parent="QXzw2-RkZq7Qz00sRfXT-3">
          <mxGeometry x="20" y="90" width="10" height="190" as="geometry" />
        </mxCell>
        <mxCell id="QXzw2-RkZq7Qz00sRfXT-19" value="show course options" style="html=1;align=left;spacingLeft=2;endArrow=block;rounded=0;edgeStyle=orthogonalEdgeStyle;curved=0;rounded=0;strokeColor=default;verticalAlign=middle;fontFamily=Helvetica;fontSize=11;fontColor=default;labelBackgroundColor=default;" edge="1" target="QXzw2-RkZq7Qz00sRfXT-7" parent="QXzw2-RkZq7Qz00sRfXT-3" source="QXzw2-RkZq7Qz00sRfXT-7">
          <mxGeometry relative="1" as="geometry">
            <mxPoint x="37" y="230" as="sourcePoint" />
            <Array as="points">
              <mxPoint x="57" y="220" />
              <mxPoint x="57" y="260" />
            </Array>
            <mxPoint x="32" y="260.03652173913054" as="targetPoint" />
          </mxGeometry>
        </mxCell>
        <mxCell id="QXzw2-RkZq7Qz00sRfXT-20" value="" style="html=1;points=[[0,0,0,0,5],[0,1,0,0,-5],[1,0,0,0,5],[1,1,0,0,-5]];perimeter=orthogonalPerimeter;outlineConnect=0;targetShapes=umlLifeline;portConstraint=eastwest;newEdgeStyle={&quot;curved&quot;:0,&quot;rounded&quot;:0};fontFamily=Helvetica;fontSize=11;fontColor=default;labelBackgroundColor=default;" vertex="1" parent="QXzw2-RkZq7Qz00sRfXT-3">
          <mxGeometry x="20" y="340" width="10" height="100" as="geometry" />
        </mxCell>
        <mxCell id="QXzw2-RkZq7Qz00sRfXT-4" value="Course" style="shape=umlLifeline;perimeter=lifelinePerimeter;whiteSpace=wrap;html=1;container=1;dropTarget=0;collapsible=0;recursiveResize=0;outlineConnect=0;portConstraint=eastwest;newEdgeStyle={&quot;curved&quot;:0,&quot;rounded&quot;:0};participant=umlEntity;fontFamily=Helvetica;fontSize=11;fontColor=default;labelBackgroundColor=default;" vertex="1" parent="1">
          <mxGeometry x="613" y="100" width="40" height="620" as="geometry" />
        </mxCell>
        <mxCell id="QXzw2-RkZq7Qz00sRfXT-12" value="" style="html=1;points=[[0,0,0,0,5],[0,1,0,0,-5],[1,0,0,0,5],[1,1,0,0,-5]];perimeter=orthogonalPerimeter;outlineConnect=0;targetShapes=umlLifeline;portConstraint=eastwest;newEdgeStyle={&quot;curved&quot;:0,&quot;rounded&quot;:0};fontFamily=Helvetica;fontSize=11;fontColor=default;labelBackgroundColor=default;" vertex="1" parent="QXzw2-RkZq7Qz00sRfXT-4">
          <mxGeometry x="15" y="120" width="10" height="70" as="geometry" />
        </mxCell>
        <mxCell id="QXzw2-RkZq7Qz00sRfXT-5" value="Question" style="shape=umlLifeline;perimeter=lifelinePerimeter;whiteSpace=wrap;html=1;container=1;dropTarget=0;collapsible=0;recursiveResize=0;outlineConnect=0;portConstraint=eastwest;newEdgeStyle={&quot;curved&quot;:0,&quot;rounded&quot;:0};participant=umlEntity;fontFamily=Helvetica;fontSize=11;fontColor=default;labelBackgroundColor=default;" vertex="1" parent="1">
          <mxGeometry x="780" y="100" width="40" height="620" as="geometry" />
        </mxCell>
        <mxCell id="QXzw2-RkZq7Qz00sRfXT-25" value="" style="html=1;points=[[0,0,0,0,5],[0,1,0,0,-5],[1,0,0,0,5],[1,1,0,0,-5]];perimeter=orthogonalPerimeter;outlineConnect=0;targetShapes=umlLifeline;portConstraint=eastwest;newEdgeStyle={&quot;curved&quot;:0,&quot;rounded&quot;:0};fontFamily=Helvetica;fontSize=11;fontColor=default;labelBackgroundColor=default;" vertex="1" parent="QXzw2-RkZq7Qz00sRfXT-5">
          <mxGeometry x="15" y="425" width="10" height="65" as="geometry" />
        </mxCell>
        <mxCell id="QXzw2-RkZq7Qz00sRfXT-6" value="View Controller" style="shape=umlLifeline;perimeter=lifelinePerimeter;whiteSpace=wrap;html=1;container=1;dropTarget=0;collapsible=0;recursiveResize=0;outlineConnect=0;portConstraint=eastwest;newEdgeStyle={&quot;curved&quot;:0,&quot;rounded&quot;:0};participant=umlControl;fontFamily=Helvetica;fontSize=11;fontColor=default;labelBackgroundColor=default;" vertex="1" parent="1">
          <mxGeometry x="445" y="100" width="40" height="620" as="geometry" />
        </mxCell>
        <mxCell id="QXzw2-RkZq7Qz00sRfXT-11" value="" style="html=1;points=[[0,0,0,0,5],[0,1,0,0,-5],[1,0,0,0,5],[1,1,0,0,-5]];perimeter=orthogonalPerimeter;outlineConnect=0;targetShapes=umlLifeline;portConstraint=eastwest;newEdgeStyle={&quot;curved&quot;:0,&quot;rounded&quot;:0};fontFamily=Helvetica;fontSize=11;fontColor=default;labelBackgroundColor=default;" vertex="1" parent="QXzw2-RkZq7Qz00sRfXT-6">
          <mxGeometry x="15" y="100" width="10" height="150" as="geometry" />
        </mxCell>
        <mxCell id="QXzw2-RkZq7Qz00sRfXT-23" value="" style="html=1;points=[[0,0,0,0,5],[0,1,0,0,-5],[1,0,0,0,5],[1,1,0,0,-5]];perimeter=orthogonalPerimeter;outlineConnect=0;targetShapes=umlLifeline;portConstraint=eastwest;newEdgeStyle={&quot;curved&quot;:0,&quot;rounded&quot;:0};fontFamily=Helvetica;fontSize=11;fontColor=default;labelBackgroundColor=default;" vertex="1" parent="QXzw2-RkZq7Qz00sRfXT-6">
          <mxGeometry x="15" y="400" width="10" height="170" as="geometry" />
        </mxCell>
        <mxCell id="QXzw2-RkZq7Qz00sRfXT-9" value="click on &quot;Add Question&quot;" style="html=1;verticalAlign=bottom;endArrow=block;curved=0;rounded=0;strokeColor=default;align=center;fontFamily=Helvetica;fontSize=11;fontColor=default;labelBackgroundColor=default;" edge="1" parent="1" source="QXzw2-RkZq7Qz00sRfXT-2" target="QXzw2-RkZq7Qz00sRfXT-7">
          <mxGeometry width="80" relative="1" as="geometry">
            <mxPoint x="129.63043478260875" y="200.0000000000001" as="sourcePoint" />
            <mxPoint x="260" y="200.0000000000001" as="targetPoint" />
            <Array as="points">
              <mxPoint x="190" y="200" />
            </Array>
          </mxGeometry>
        </mxCell>
        <mxCell id="QXzw2-RkZq7Qz00sRfXT-10" value="request for courses" style="html=1;verticalAlign=bottom;endArrow=block;curved=0;rounded=0;strokeColor=default;align=center;fontFamily=Helvetica;fontSize=11;fontColor=default;labelBackgroundColor=default;" edge="1" parent="1" source="QXzw2-RkZq7Qz00sRfXT-7" target="QXzw2-RkZq7Qz00sRfXT-11">
          <mxGeometry x="0.0009" width="80" relative="1" as="geometry">
            <mxPoint x="280" y="220" as="sourcePoint" />
            <mxPoint x="410" y="220" as="targetPoint" />
            <Array as="points">
              <mxPoint x="340" y="220" />
            </Array>
            <mxPoint as="offset" />
          </mxGeometry>
        </mxCell>
        <mxCell id="QXzw2-RkZq7Qz00sRfXT-13" value="request for courses" style="html=1;verticalAlign=bottom;endArrow=block;curved=0;rounded=0;strokeColor=default;align=center;fontFamily=Helvetica;fontSize=11;fontColor=default;labelBackgroundColor=default;" edge="1" parent="1" source="QXzw2-RkZq7Qz00sRfXT-11" target="QXzw2-RkZq7Qz00sRfXT-12">
          <mxGeometry x="0.0009" width="80" relative="1" as="geometry">
            <mxPoint x="414" y="240" as="sourcePoint" />
            <mxPoint x="553" y="240" as="targetPoint" />
            <Array as="points">
              <mxPoint x="484" y="240" />
            </Array>
            <mxPoint as="offset" />
          </mxGeometry>
        </mxCell>
        <mxCell id="QXzw2-RkZq7Qz00sRfXT-14" value="courses" style="html=1;verticalAlign=bottom;endArrow=open;dashed=1;endSize=8;curved=0;rounded=0;strokeColor=default;align=center;fontFamily=Helvetica;fontSize=11;fontColor=default;labelBackgroundColor=default;" edge="1" parent="1">
          <mxGeometry relative="1" as="geometry">
            <mxPoint x="628" y="270" as="sourcePoint" />
            <mxPoint x="470" y="270" as="targetPoint" />
          </mxGeometry>
        </mxCell>
        <mxCell id="QXzw2-RkZq7Qz00sRfXT-15" value="courses" style="html=1;verticalAlign=bottom;endArrow=open;dashed=1;endSize=8;curved=0;rounded=0;strokeColor=default;align=center;fontFamily=Helvetica;fontSize=11;fontColor=default;labelBackgroundColor=default;" edge="1" parent="1">
          <mxGeometry relative="1" as="geometry">
            <mxPoint x="460" y="290.0000000000001" as="sourcePoint" />
            <mxPoint x="303" y="290.0000000000001" as="targetPoint" />
          </mxGeometry>
        </mxCell>
        <mxCell id="QXzw2-RkZq7Qz00sRfXT-21" value="fill question informations" style="html=1;verticalAlign=bottom;endArrow=block;curved=0;rounded=0;strokeColor=default;align=center;fontFamily=Helvetica;fontSize=11;fontColor=default;labelBackgroundColor=default;" edge="1" parent="1" source="QXzw2-RkZq7Qz00sRfXT-2" target="QXzw2-RkZq7Qz00sRfXT-20">
          <mxGeometry width="80" relative="1" as="geometry">
            <mxPoint x="170" y="450" as="sourcePoint" />
            <mxPoint x="250" y="450" as="targetPoint" />
            <Array as="points">
              <mxPoint x="220" y="460" />
            </Array>
          </mxGeometry>
        </mxCell>
        <mxCell id="QXzw2-RkZq7Qz00sRfXT-22" value="click &quot;ADD&quot;" style="html=1;verticalAlign=bottom;endArrow=block;curved=0;rounded=0;strokeColor=default;align=center;fontFamily=Helvetica;fontSize=11;fontColor=default;labelBackgroundColor=default;" edge="1" parent="1" source="QXzw2-RkZq7Qz00sRfXT-2" target="QXzw2-RkZq7Qz00sRfXT-20">
          <mxGeometry width="80" relative="1" as="geometry">
            <mxPoint x="130" y="490" as="sourcePoint" />
            <mxPoint x="293" y="490" as="targetPoint" />
            <Array as="points">
              <mxPoint x="220" y="490" />
            </Array>
          </mxGeometry>
        </mxCell>
        <mxCell id="QXzw2-RkZq7Qz00sRfXT-24" value="add new question" style="html=1;verticalAlign=bottom;endArrow=block;curved=0;rounded=0;strokeColor=default;align=center;fontFamily=Helvetica;fontSize=11;fontColor=default;labelBackgroundColor=default;" edge="1" parent="1" source="QXzw2-RkZq7Qz00sRfXT-20" target="QXzw2-RkZq7Qz00sRfXT-23">
          <mxGeometry x="-0.003" width="80" relative="1" as="geometry">
            <mxPoint x="300" y="520" as="sourcePoint" />
            <mxPoint x="463" y="520" as="targetPoint" />
            <Array as="points">
              <mxPoint x="390" y="520" />
            </Array>
            <mxPoint as="offset" />
          </mxGeometry>
        </mxCell>
        <mxCell id="QXzw2-RkZq7Qz00sRfXT-26" value="add new question" style="html=1;verticalAlign=bottom;endArrow=block;curved=0;rounded=0;strokeColor=default;align=center;fontFamily=Helvetica;fontSize=11;fontColor=default;labelBackgroundColor=default;" edge="1" parent="1" source="QXzw2-RkZq7Qz00sRfXT-23" target="QXzw2-RkZq7Qz00sRfXT-25">
          <mxGeometry x="-0.003" width="80" relative="1" as="geometry">
            <mxPoint x="470" y="540" as="sourcePoint" />
            <mxPoint x="627" y="540" as="targetPoint" />
            <Array as="points">
              <mxPoint x="557" y="540" />
            </Array>
            <mxPoint as="offset" />
          </mxGeometry>
        </mxCell>
        <mxCell id="QXzw2-RkZq7Qz00sRfXT-27" value="added successful" style="html=1;verticalAlign=bottom;endArrow=open;dashed=1;endSize=8;curved=0;rounded=0;strokeColor=default;align=center;fontFamily=Helvetica;fontSize=11;fontColor=default;labelBackgroundColor=default;" edge="1" parent="1" source="QXzw2-RkZq7Qz00sRfXT-25" target="QXzw2-RkZq7Qz00sRfXT-23">
          <mxGeometry relative="1" as="geometry">
            <mxPoint x="712" y="584" as="sourcePoint" />
            <mxPoint x="554" y="584" as="targetPoint" />
            <Array as="points">
              <mxPoint x="630" y="570" />
            </Array>
          </mxGeometry>
        </mxCell>
        <mxCell id="QXzw2-RkZq7Qz00sRfXT-30" value="navigate to view question" style="html=1;align=left;spacingLeft=2;endArrow=block;rounded=0;edgeStyle=orthogonalEdgeStyle;curved=0;rounded=0;strokeColor=default;verticalAlign=middle;fontFamily=Helvetica;fontSize=11;fontColor=default;labelBackgroundColor=default;" edge="1" parent="1">
          <mxGeometry x="-0.0019" relative="1" as="geometry">
            <mxPoint x="470" y="600.04" as="sourcePoint" />
            <Array as="points">
              <mxPoint x="497" y="600.04" />
              <mxPoint x="497" y="640.04" />
            </Array>
            <mxPoint x="470" y="640.04" as="targetPoint" />
            <mxPoint as="offset" />
          </mxGeometry>
        </mxCell>
      </root>
    </mxGraphModel>
  </diagram>
  <diagram id="0OnB43R0mAU6Ru6guTHn" name="read-question">
    <mxGraphModel dx="1207" dy="908" grid="1" gridSize="10" guides="1" tooltips="1" connect="1" arrows="1" fold="1" page="1" pageScale="1" pageWidth="827" pageHeight="1169" math="0" shadow="0">
      <root>
        <mxCell id="0" />
        <mxCell id="1" parent="0" />
        <mxCell id="JznivnfPVUlbHyttfoeE-1" value="Teacher" style="shape=umlLifeline;perimeter=lifelinePerimeter;whiteSpace=wrap;html=1;container=1;dropTarget=0;collapsible=0;recursiveResize=0;outlineConnect=0;portConstraint=eastwest;newEdgeStyle={&quot;curved&quot;:0,&quot;rounded&quot;:0};participant=umlActor;fontFamily=Helvetica;fontSize=11;fontColor=default;labelBackgroundColor=default;" vertex="1" parent="1">
          <mxGeometry x="120" y="100" width="20" height="620" as="geometry" />
        </mxCell>
        <mxCell id="JznivnfPVUlbHyttfoeE-2" value="UI" style="shape=umlLifeline;perimeter=lifelinePerimeter;whiteSpace=wrap;html=1;container=1;dropTarget=0;collapsible=0;recursiveResize=0;outlineConnect=0;portConstraint=eastwest;newEdgeStyle={&quot;curved&quot;:0,&quot;rounded&quot;:0};participant=umlBoundary;fontFamily=Helvetica;fontSize=11;fontColor=default;labelBackgroundColor=default;" vertex="1" parent="1">
          <mxGeometry x="273" y="100" width="50" height="620" as="geometry" />
        </mxCell>
        <mxCell id="JznivnfPVUlbHyttfoeE-3" value="" style="html=1;points=[[0,0,0,0,5],[0,1,0,0,-5],[1,0,0,0,5],[1,1,0,0,-5]];perimeter=orthogonalPerimeter;outlineConnect=0;targetShapes=umlLifeline;portConstraint=eastwest;newEdgeStyle={&quot;curved&quot;:0,&quot;rounded&quot;:0};fontFamily=Helvetica;fontSize=11;fontColor=default;labelBackgroundColor=default;" vertex="1" parent="JznivnfPVUlbHyttfoeE-2">
          <mxGeometry x="20" y="90" width="10" height="190" as="geometry" />
        </mxCell>
        <mxCell id="JznivnfPVUlbHyttfoeE-4" value="show course" style="html=1;align=left;spacingLeft=2;endArrow=block;rounded=0;edgeStyle=orthogonalEdgeStyle;curved=0;rounded=0;strokeColor=default;verticalAlign=middle;fontFamily=Helvetica;fontSize=11;fontColor=default;labelBackgroundColor=default;" edge="1" parent="JznivnfPVUlbHyttfoeE-2" source="JznivnfPVUlbHyttfoeE-3" target="JznivnfPVUlbHyttfoeE-3">
          <mxGeometry relative="1" as="geometry">
            <mxPoint x="37" y="230" as="sourcePoint" />
            <Array as="points">
              <mxPoint x="57" y="220" />
              <mxPoint x="57" y="260" />
            </Array>
            <mxPoint x="32" y="260.03652173913054" as="targetPoint" />
          </mxGeometry>
        </mxCell>
        <mxCell id="JznivnfPVUlbHyttfoeE-5" value="" style="html=1;points=[[0,0,0,0,5],[0,1,0,0,-5],[1,0,0,0,5],[1,1,0,0,-5]];perimeter=orthogonalPerimeter;outlineConnect=0;targetShapes=umlLifeline;portConstraint=eastwest;newEdgeStyle={&quot;curved&quot;:0,&quot;rounded&quot;:0};fontFamily=Helvetica;fontSize=11;fontColor=default;labelBackgroundColor=default;" vertex="1" parent="JznivnfPVUlbHyttfoeE-2">
          <mxGeometry x="20" y="340" width="10" height="230" as="geometry" />
        </mxCell>
        <mxCell id="JznivnfPVUlbHyttfoeE-25" value="show&amp;nbsp;&lt;span style=&quot;text-align: center;&quot;&gt;questions in course&lt;/span&gt;" style="html=1;align=left;spacingLeft=2;endArrow=block;rounded=0;edgeStyle=orthogonalEdgeStyle;curved=0;rounded=0;strokeColor=default;verticalAlign=middle;fontFamily=Helvetica;fontSize=11;fontColor=default;labelBackgroundColor=default;" edge="1" parent="JznivnfPVUlbHyttfoeE-2" source="JznivnfPVUlbHyttfoeE-5" target="JznivnfPVUlbHyttfoeE-5">
          <mxGeometry relative="1" as="geometry">
            <mxPoint x="37" y="500" as="sourcePoint" />
            <Array as="points">
              <mxPoint x="64" y="500" />
              <mxPoint x="64" y="540" />
            </Array>
            <mxPoint x="37" y="540" as="targetPoint" />
          </mxGeometry>
        </mxCell>
        <mxCell id="JznivnfPVUlbHyttfoeE-6" value="Course" style="shape=umlLifeline;perimeter=lifelinePerimeter;whiteSpace=wrap;html=1;container=1;dropTarget=0;collapsible=0;recursiveResize=0;outlineConnect=0;portConstraint=eastwest;newEdgeStyle={&quot;curved&quot;:0,&quot;rounded&quot;:0};participant=umlEntity;fontFamily=Helvetica;fontSize=11;fontColor=default;labelBackgroundColor=default;" vertex="1" parent="1">
          <mxGeometry x="613" y="100" width="40" height="620" as="geometry" />
        </mxCell>
        <mxCell id="JznivnfPVUlbHyttfoeE-7" value="" style="html=1;points=[[0,0,0,0,5],[0,1,0,0,-5],[1,0,0,0,5],[1,1,0,0,-5]];perimeter=orthogonalPerimeter;outlineConnect=0;targetShapes=umlLifeline;portConstraint=eastwest;newEdgeStyle={&quot;curved&quot;:0,&quot;rounded&quot;:0};fontFamily=Helvetica;fontSize=11;fontColor=default;labelBackgroundColor=default;" vertex="1" parent="JznivnfPVUlbHyttfoeE-6">
          <mxGeometry x="15" y="120" width="10" height="70" as="geometry" />
        </mxCell>
        <mxCell id="JznivnfPVUlbHyttfoeE-8" value="Question" style="shape=umlLifeline;perimeter=lifelinePerimeter;whiteSpace=wrap;html=1;container=1;dropTarget=0;collapsible=0;recursiveResize=0;outlineConnect=0;portConstraint=eastwest;newEdgeStyle={&quot;curved&quot;:0,&quot;rounded&quot;:0};participant=umlEntity;fontFamily=Helvetica;fontSize=11;fontColor=default;labelBackgroundColor=default;" vertex="1" parent="1">
          <mxGeometry x="780" y="100" width="40" height="620" as="geometry" />
        </mxCell>
        <mxCell id="JznivnfPVUlbHyttfoeE-9" value="" style="html=1;points=[[0,0,0,0,5],[0,1,0,0,-5],[1,0,0,0,5],[1,1,0,0,-5]];perimeter=orthogonalPerimeter;outlineConnect=0;targetShapes=umlLifeline;portConstraint=eastwest;newEdgeStyle={&quot;curved&quot;:0,&quot;rounded&quot;:0};fontFamily=Helvetica;fontSize=11;fontColor=default;labelBackgroundColor=default;" vertex="1" parent="JznivnfPVUlbHyttfoeE-8">
          <mxGeometry x="15" y="390" width="10" height="70" as="geometry" />
        </mxCell>
        <mxCell id="JznivnfPVUlbHyttfoeE-10" value="View Controller" style="shape=umlLifeline;perimeter=lifelinePerimeter;whiteSpace=wrap;html=1;container=1;dropTarget=0;collapsible=0;recursiveResize=0;outlineConnect=0;portConstraint=eastwest;newEdgeStyle={&quot;curved&quot;:0,&quot;rounded&quot;:0};participant=umlControl;fontFamily=Helvetica;fontSize=11;fontColor=default;labelBackgroundColor=default;" vertex="1" parent="1">
          <mxGeometry x="445" y="100" width="40" height="620" as="geometry" />
        </mxCell>
        <mxCell id="JznivnfPVUlbHyttfoeE-11" value="" style="html=1;points=[[0,0,0,0,5],[0,1,0,0,-5],[1,0,0,0,5],[1,1,0,0,-5]];perimeter=orthogonalPerimeter;outlineConnect=0;targetShapes=umlLifeline;portConstraint=eastwest;newEdgeStyle={&quot;curved&quot;:0,&quot;rounded&quot;:0};fontFamily=Helvetica;fontSize=11;fontColor=default;labelBackgroundColor=default;" vertex="1" parent="JznivnfPVUlbHyttfoeE-10">
          <mxGeometry x="15" y="100" width="10" height="150" as="geometry" />
        </mxCell>
        <mxCell id="JznivnfPVUlbHyttfoeE-12" value="" style="html=1;points=[[0,0,0,0,5],[0,1,0,0,-5],[1,0,0,0,5],[1,1,0,0,-5]];perimeter=orthogonalPerimeter;outlineConnect=0;targetShapes=umlLifeline;portConstraint=eastwest;newEdgeStyle={&quot;curved&quot;:0,&quot;rounded&quot;:0};fontFamily=Helvetica;fontSize=11;fontColor=default;labelBackgroundColor=default;" vertex="1" parent="JznivnfPVUlbHyttfoeE-10">
          <mxGeometry x="15" y="370" width="10" height="110" as="geometry" />
        </mxCell>
        <mxCell id="JznivnfPVUlbHyttfoeE-13" value="click on &quot;View Questions&quot;" style="html=1;verticalAlign=bottom;endArrow=block;curved=0;rounded=0;strokeColor=default;align=center;fontFamily=Helvetica;fontSize=11;fontColor=default;labelBackgroundColor=default;" edge="1" parent="1" source="JznivnfPVUlbHyttfoeE-1" target="JznivnfPVUlbHyttfoeE-3">
          <mxGeometry width="80" relative="1" as="geometry">
            <mxPoint x="129.63043478260875" y="200.0000000000001" as="sourcePoint" />
            <mxPoint x="260" y="200.0000000000001" as="targetPoint" />
            <Array as="points">
              <mxPoint x="190" y="200" />
            </Array>
          </mxGeometry>
        </mxCell>
        <mxCell id="JznivnfPVUlbHyttfoeE-14" value="request for courses" style="html=1;verticalAlign=bottom;endArrow=block;curved=0;rounded=0;strokeColor=default;align=center;fontFamily=Helvetica;fontSize=11;fontColor=default;labelBackgroundColor=default;" edge="1" parent="1" source="JznivnfPVUlbHyttfoeE-3" target="JznivnfPVUlbHyttfoeE-11">
          <mxGeometry x="0.0009" width="80" relative="1" as="geometry">
            <mxPoint x="280" y="220" as="sourcePoint" />
            <mxPoint x="410" y="220" as="targetPoint" />
            <Array as="points">
              <mxPoint x="340" y="220" />
            </Array>
            <mxPoint as="offset" />
          </mxGeometry>
        </mxCell>
        <mxCell id="JznivnfPVUlbHyttfoeE-15" value="request for courses" style="html=1;verticalAlign=bottom;endArrow=block;curved=0;rounded=0;strokeColor=default;align=center;fontFamily=Helvetica;fontSize=11;fontColor=default;labelBackgroundColor=default;" edge="1" parent="1" source="JznivnfPVUlbHyttfoeE-11" target="JznivnfPVUlbHyttfoeE-7">
          <mxGeometry x="0.0009" width="80" relative="1" as="geometry">
            <mxPoint x="414" y="240" as="sourcePoint" />
            <mxPoint x="553" y="240" as="targetPoint" />
            <Array as="points">
              <mxPoint x="484" y="240" />
            </Array>
            <mxPoint as="offset" />
          </mxGeometry>
        </mxCell>
        <mxCell id="JznivnfPVUlbHyttfoeE-16" value="courses" style="html=1;verticalAlign=bottom;endArrow=open;dashed=1;endSize=8;curved=0;rounded=0;strokeColor=default;align=center;fontFamily=Helvetica;fontSize=11;fontColor=default;labelBackgroundColor=default;" edge="1" parent="1">
          <mxGeometry relative="1" as="geometry">
            <mxPoint x="628" y="270" as="sourcePoint" />
            <mxPoint x="470" y="270" as="targetPoint" />
          </mxGeometry>
        </mxCell>
        <mxCell id="JznivnfPVUlbHyttfoeE-17" value="courses" style="html=1;verticalAlign=bottom;endArrow=open;dashed=1;endSize=8;curved=0;rounded=0;strokeColor=default;align=center;fontFamily=Helvetica;fontSize=11;fontColor=default;labelBackgroundColor=default;" edge="1" parent="1">
          <mxGeometry relative="1" as="geometry">
            <mxPoint x="460" y="290.0000000000001" as="sourcePoint" />
            <mxPoint x="303" y="290.0000000000001" as="targetPoint" />
          </mxGeometry>
        </mxCell>
        <mxCell id="JznivnfPVUlbHyttfoeE-18" value="select course to view questions" style="html=1;verticalAlign=bottom;endArrow=block;curved=0;rounded=0;strokeColor=default;align=center;fontFamily=Helvetica;fontSize=11;fontColor=default;labelBackgroundColor=default;" edge="1" parent="1" source="JznivnfPVUlbHyttfoeE-1" target="JznivnfPVUlbHyttfoeE-5">
          <mxGeometry width="80" relative="1" as="geometry">
            <mxPoint x="170" y="450" as="sourcePoint" />
            <mxPoint x="250" y="450" as="targetPoint" />
            <Array as="points">
              <mxPoint x="220" y="460" />
            </Array>
          </mxGeometry>
        </mxCell>
        <mxCell id="JznivnfPVUlbHyttfoeE-20" value="request for questions in course" style="html=1;verticalAlign=bottom;endArrow=block;curved=0;rounded=0;strokeColor=default;align=center;fontFamily=Helvetica;fontSize=11;fontColor=default;labelBackgroundColor=default;" edge="1" parent="1" source="JznivnfPVUlbHyttfoeE-5" target="JznivnfPVUlbHyttfoeE-12">
          <mxGeometry x="-0.0064" width="80" relative="1" as="geometry">
            <mxPoint x="300" y="520" as="sourcePoint" />
            <mxPoint x="463" y="520" as="targetPoint" />
            <Array as="points">
              <mxPoint x="390" y="490" />
            </Array>
            <mxPoint as="offset" />
          </mxGeometry>
        </mxCell>
        <mxCell id="JznivnfPVUlbHyttfoeE-21" value="request for questions in course" style="html=1;verticalAlign=bottom;endArrow=block;curved=0;rounded=0;strokeColor=default;align=center;fontFamily=Helvetica;fontSize=11;fontColor=default;labelBackgroundColor=default;" edge="1" parent="1" source="JznivnfPVUlbHyttfoeE-12" target="JznivnfPVUlbHyttfoeE-9">
          <mxGeometry x="-0.003" width="80" relative="1" as="geometry">
            <mxPoint x="470" y="540" as="sourcePoint" />
            <mxPoint x="627" y="540" as="targetPoint" />
            <Array as="points">
              <mxPoint x="560" y="510" />
            </Array>
            <mxPoint as="offset" />
          </mxGeometry>
        </mxCell>
        <mxCell id="JznivnfPVUlbHyttfoeE-22" value="questions in course" style="html=1;verticalAlign=bottom;endArrow=open;dashed=1;endSize=8;curved=0;rounded=0;strokeColor=default;align=center;fontFamily=Helvetica;fontSize=11;fontColor=default;labelBackgroundColor=default;" edge="1" parent="1" source="JznivnfPVUlbHyttfoeE-9" target="JznivnfPVUlbHyttfoeE-12">
          <mxGeometry relative="1" as="geometry">
            <mxPoint x="712" y="584" as="sourcePoint" />
            <mxPoint x="554" y="584" as="targetPoint" />
            <Array as="points">
              <mxPoint x="630" y="540" />
            </Array>
          </mxGeometry>
        </mxCell>
        <mxCell id="JznivnfPVUlbHyttfoeE-24" value="questions in course" style="html=1;verticalAlign=bottom;endArrow=open;dashed=1;endSize=8;curved=0;rounded=0;strokeColor=default;align=center;fontFamily=Helvetica;fontSize=11;fontColor=default;labelBackgroundColor=default;" edge="1" parent="1" source="JznivnfPVUlbHyttfoeE-12" target="JznivnfPVUlbHyttfoeE-5">
          <mxGeometry x="0.0064" relative="1" as="geometry">
            <mxPoint x="805" y="550" as="sourcePoint" />
            <mxPoint x="480" y="550" as="targetPoint" />
            <Array as="points">
              <mxPoint x="380" y="560" />
            </Array>
            <mxPoint as="offset" />
          </mxGeometry>
        </mxCell>
      </root>
    </mxGraphModel>
  </diagram>
  <diagram id="s6aGE4UOYzt2LQOI8U9z" name="update-question">
    <mxGraphModel dx="1026" dy="772" grid="1" gridSize="10" guides="1" tooltips="1" connect="1" arrows="1" fold="1" page="1" pageScale="1" pageWidth="827" pageHeight="1169" math="0" shadow="0">
      <root>
        <mxCell id="0" />
        <mxCell id="1" parent="0" />
        <mxCell id="8IvI-AlmYOoEdXCAKGE2-1" value="Teacher" style="shape=umlLifeline;perimeter=lifelinePerimeter;whiteSpace=wrap;html=1;container=1;dropTarget=0;collapsible=0;recursiveResize=0;outlineConnect=0;portConstraint=eastwest;newEdgeStyle={&quot;curved&quot;:0,&quot;rounded&quot;:0};participant=umlActor;fontFamily=Helvetica;fontSize=11;fontColor=default;labelBackgroundColor=default;" vertex="1" parent="1">
          <mxGeometry x="120" y="100" width="20" height="620" as="geometry" />
        </mxCell>
        <mxCell id="8IvI-AlmYOoEdXCAKGE2-2" value="UI" style="shape=umlLifeline;perimeter=lifelinePerimeter;whiteSpace=wrap;html=1;container=1;dropTarget=0;collapsible=0;recursiveResize=0;outlineConnect=0;portConstraint=eastwest;newEdgeStyle={&quot;curved&quot;:0,&quot;rounded&quot;:0};participant=umlBoundary;fontFamily=Helvetica;fontSize=11;fontColor=default;labelBackgroundColor=default;" vertex="1" parent="1">
          <mxGeometry x="273" y="100" width="50" height="620" as="geometry" />
        </mxCell>
        <mxCell id="8IvI-AlmYOoEdXCAKGE2-3" value="" style="html=1;points=[[0,0,0,0,5],[0,1,0,0,-5],[1,0,0,0,5],[1,1,0,0,-5]];perimeter=orthogonalPerimeter;outlineConnect=0;targetShapes=umlLifeline;portConstraint=eastwest;newEdgeStyle={&quot;curved&quot;:0,&quot;rounded&quot;:0};fontFamily=Helvetica;fontSize=11;fontColor=default;labelBackgroundColor=default;" vertex="1" parent="8IvI-AlmYOoEdXCAKGE2-2">
          <mxGeometry x="20" y="90" width="10" height="190" as="geometry" />
        </mxCell>
        <mxCell id="8IvI-AlmYOoEdXCAKGE2-4" value="show&amp;nbsp;&lt;span style=&quot;text-align: center;&quot;&gt;question details&lt;/span&gt;" style="html=1;align=left;spacingLeft=2;endArrow=block;rounded=0;edgeStyle=orthogonalEdgeStyle;curved=0;rounded=0;strokeColor=default;verticalAlign=middle;fontFamily=Helvetica;fontSize=11;fontColor=default;labelBackgroundColor=default;" edge="1" parent="8IvI-AlmYOoEdXCAKGE2-2" source="8IvI-AlmYOoEdXCAKGE2-3" target="8IvI-AlmYOoEdXCAKGE2-3">
          <mxGeometry relative="1" as="geometry">
            <mxPoint x="37" y="230" as="sourcePoint" />
            <Array as="points">
              <mxPoint x="57" y="220" />
              <mxPoint x="57" y="260" />
            </Array>
            <mxPoint x="32" y="260.03652173913054" as="targetPoint" />
          </mxGeometry>
        </mxCell>
        <mxCell id="8IvI-AlmYOoEdXCAKGE2-5" value="" style="html=1;points=[[0,0,0,0,5],[0,1,0,0,-5],[1,0,0,0,5],[1,1,0,0,-5]];perimeter=orthogonalPerimeter;outlineConnect=0;targetShapes=umlLifeline;portConstraint=eastwest;newEdgeStyle={&quot;curved&quot;:0,&quot;rounded&quot;:0};fontFamily=Helvetica;fontSize=11;fontColor=default;labelBackgroundColor=default;" vertex="1" parent="8IvI-AlmYOoEdXCAKGE2-2">
          <mxGeometry x="20" y="340" width="10" height="100" as="geometry" />
        </mxCell>
        <mxCell id="8IvI-AlmYOoEdXCAKGE2-8" value="Question" style="shape=umlLifeline;perimeter=lifelinePerimeter;whiteSpace=wrap;html=1;container=1;dropTarget=0;collapsible=0;recursiveResize=0;outlineConnect=0;portConstraint=eastwest;newEdgeStyle={&quot;curved&quot;:0,&quot;rounded&quot;:0};participant=umlEntity;fontFamily=Helvetica;fontSize=11;fontColor=default;labelBackgroundColor=default;" vertex="1" parent="1">
          <mxGeometry x="613" y="100" width="40" height="620" as="geometry" />
        </mxCell>
        <mxCell id="8IvI-AlmYOoEdXCAKGE2-9" value="" style="html=1;points=[[0,0,0,0,5],[0,1,0,0,-5],[1,0,0,0,5],[1,1,0,0,-5]];perimeter=orthogonalPerimeter;outlineConnect=0;targetShapes=umlLifeline;portConstraint=eastwest;newEdgeStyle={&quot;curved&quot;:0,&quot;rounded&quot;:0};fontFamily=Helvetica;fontSize=11;fontColor=default;labelBackgroundColor=default;" vertex="1" parent="8IvI-AlmYOoEdXCAKGE2-8">
          <mxGeometry x="15" y="425" width="10" height="65" as="geometry" />
        </mxCell>
        <mxCell id="8IvI-AlmYOoEdXCAKGE2-7" value="" style="html=1;points=[[0,0,0,0,5],[0,1,0,0,-5],[1,0,0,0,5],[1,1,0,0,-5]];perimeter=orthogonalPerimeter;outlineConnect=0;targetShapes=umlLifeline;portConstraint=eastwest;newEdgeStyle={&quot;curved&quot;:0,&quot;rounded&quot;:0};fontFamily=Helvetica;fontSize=11;fontColor=default;labelBackgroundColor=default;" vertex="1" parent="8IvI-AlmYOoEdXCAKGE2-8">
          <mxGeometry x="15" y="130" width="10" height="70" as="geometry" />
        </mxCell>
        <mxCell id="8IvI-AlmYOoEdXCAKGE2-10" value="View Controller" style="shape=umlLifeline;perimeter=lifelinePerimeter;whiteSpace=wrap;html=1;container=1;dropTarget=0;collapsible=0;recursiveResize=0;outlineConnect=0;portConstraint=eastwest;newEdgeStyle={&quot;curved&quot;:0,&quot;rounded&quot;:0};participant=umlControl;fontFamily=Helvetica;fontSize=11;fontColor=default;labelBackgroundColor=default;" vertex="1" parent="1">
          <mxGeometry x="445" y="100" width="40" height="620" as="geometry" />
        </mxCell>
        <mxCell id="8IvI-AlmYOoEdXCAKGE2-11" value="" style="html=1;points=[[0,0,0,0,5],[0,1,0,0,-5],[1,0,0,0,5],[1,1,0,0,-5]];perimeter=orthogonalPerimeter;outlineConnect=0;targetShapes=umlLifeline;portConstraint=eastwest;newEdgeStyle={&quot;curved&quot;:0,&quot;rounded&quot;:0};fontFamily=Helvetica;fontSize=11;fontColor=default;labelBackgroundColor=default;" vertex="1" parent="8IvI-AlmYOoEdXCAKGE2-10">
          <mxGeometry x="15" y="100" width="10" height="150" as="geometry" />
        </mxCell>
        <mxCell id="8IvI-AlmYOoEdXCAKGE2-12" value="" style="html=1;points=[[0,0,0,0,5],[0,1,0,0,-5],[1,0,0,0,5],[1,1,0,0,-5]];perimeter=orthogonalPerimeter;outlineConnect=0;targetShapes=umlLifeline;portConstraint=eastwest;newEdgeStyle={&quot;curved&quot;:0,&quot;rounded&quot;:0};fontFamily=Helvetica;fontSize=11;fontColor=default;labelBackgroundColor=default;" vertex="1" parent="8IvI-AlmYOoEdXCAKGE2-10">
          <mxGeometry x="15" y="400" width="10" height="170" as="geometry" />
        </mxCell>
        <mxCell id="8IvI-AlmYOoEdXCAKGE2-13" value="click on question" style="html=1;verticalAlign=bottom;endArrow=block;curved=0;rounded=0;strokeColor=default;align=center;fontFamily=Helvetica;fontSize=11;fontColor=default;labelBackgroundColor=default;" edge="1" parent="1" source="8IvI-AlmYOoEdXCAKGE2-1" target="8IvI-AlmYOoEdXCAKGE2-3">
          <mxGeometry width="80" relative="1" as="geometry">
            <mxPoint x="129.63043478260875" y="200.0000000000001" as="sourcePoint" />
            <mxPoint x="260" y="200.0000000000001" as="targetPoint" />
            <Array as="points">
              <mxPoint x="190" y="200" />
            </Array>
          </mxGeometry>
        </mxCell>
        <mxCell id="8IvI-AlmYOoEdXCAKGE2-14" value="request for question details" style="html=1;verticalAlign=bottom;endArrow=block;curved=0;rounded=0;strokeColor=default;align=center;fontFamily=Helvetica;fontSize=11;fontColor=default;labelBackgroundColor=default;" edge="1" parent="1" source="8IvI-AlmYOoEdXCAKGE2-3" target="8IvI-AlmYOoEdXCAKGE2-11">
          <mxGeometry x="0.0009" width="80" relative="1" as="geometry">
            <mxPoint x="280" y="220" as="sourcePoint" />
            <mxPoint x="410" y="220" as="targetPoint" />
            <Array as="points">
              <mxPoint x="340" y="220" />
            </Array>
            <mxPoint as="offset" />
          </mxGeometry>
        </mxCell>
        <mxCell id="8IvI-AlmYOoEdXCAKGE2-15" value="request for question details" style="html=1;verticalAlign=bottom;endArrow=block;curved=0;rounded=0;strokeColor=default;align=center;fontFamily=Helvetica;fontSize=11;fontColor=default;labelBackgroundColor=default;" edge="1" parent="1" source="8IvI-AlmYOoEdXCAKGE2-11" target="8IvI-AlmYOoEdXCAKGE2-7">
          <mxGeometry x="0.0009" width="80" relative="1" as="geometry">
            <mxPoint x="414" y="240" as="sourcePoint" />
            <mxPoint x="553" y="240" as="targetPoint" />
            <Array as="points">
              <mxPoint x="484" y="240" />
            </Array>
            <mxPoint as="offset" />
          </mxGeometry>
        </mxCell>
        <mxCell id="8IvI-AlmYOoEdXCAKGE2-16" value="question details" style="html=1;verticalAlign=bottom;endArrow=open;dashed=1;endSize=8;curved=0;rounded=0;strokeColor=default;align=center;fontFamily=Helvetica;fontSize=11;fontColor=default;labelBackgroundColor=default;" edge="1" parent="1" source="8IvI-AlmYOoEdXCAKGE2-7">
          <mxGeometry x="0.0031" relative="1" as="geometry">
            <mxPoint x="628" y="270" as="sourcePoint" />
            <mxPoint x="470" y="270" as="targetPoint" />
            <mxPoint as="offset" />
          </mxGeometry>
        </mxCell>
        <mxCell id="8IvI-AlmYOoEdXCAKGE2-17" value="question details" style="html=1;verticalAlign=bottom;endArrow=open;dashed=1;endSize=8;curved=0;rounded=0;strokeColor=default;align=center;fontFamily=Helvetica;fontSize=11;fontColor=default;labelBackgroundColor=default;" edge="1" parent="1">
          <mxGeometry x="0.0064" relative="1" as="geometry">
            <mxPoint x="460" y="290.0000000000001" as="sourcePoint" />
            <mxPoint x="303" y="290.0000000000001" as="targetPoint" />
            <mxPoint as="offset" />
          </mxGeometry>
        </mxCell>
        <mxCell id="8IvI-AlmYOoEdXCAKGE2-18" value="update&amp;nbsp;necessary question details" style="html=1;verticalAlign=bottom;endArrow=block;curved=0;rounded=0;strokeColor=default;align=center;fontFamily=Helvetica;fontSize=11;fontColor=default;labelBackgroundColor=default;" edge="1" parent="1" source="8IvI-AlmYOoEdXCAKGE2-1" target="8IvI-AlmYOoEdXCAKGE2-5">
          <mxGeometry width="80" relative="1" as="geometry">
            <mxPoint x="170" y="450" as="sourcePoint" />
            <mxPoint x="250" y="450" as="targetPoint" />
            <Array as="points">
              <mxPoint x="220" y="460" />
            </Array>
          </mxGeometry>
        </mxCell>
        <mxCell id="8IvI-AlmYOoEdXCAKGE2-19" value="click &quot;SAVE&quot;" style="html=1;verticalAlign=bottom;endArrow=block;curved=0;rounded=0;strokeColor=default;align=center;fontFamily=Helvetica;fontSize=11;fontColor=default;labelBackgroundColor=default;" edge="1" parent="1" source="8IvI-AlmYOoEdXCAKGE2-1" target="8IvI-AlmYOoEdXCAKGE2-5">
          <mxGeometry width="80" relative="1" as="geometry">
            <mxPoint x="130" y="490" as="sourcePoint" />
            <mxPoint x="293" y="490" as="targetPoint" />
            <Array as="points">
              <mxPoint x="220" y="490" />
            </Array>
          </mxGeometry>
        </mxCell>
        <mxCell id="8IvI-AlmYOoEdXCAKGE2-20" value="update question" style="html=1;verticalAlign=bottom;endArrow=block;curved=0;rounded=0;strokeColor=default;align=center;fontFamily=Helvetica;fontSize=11;fontColor=default;labelBackgroundColor=default;" edge="1" parent="1" source="8IvI-AlmYOoEdXCAKGE2-5" target="8IvI-AlmYOoEdXCAKGE2-12">
          <mxGeometry x="-0.003" width="80" relative="1" as="geometry">
            <mxPoint x="300" y="520" as="sourcePoint" />
            <mxPoint x="463" y="520" as="targetPoint" />
            <Array as="points">
              <mxPoint x="390" y="520" />
            </Array>
            <mxPoint as="offset" />
          </mxGeometry>
        </mxCell>
        <mxCell id="8IvI-AlmYOoEdXCAKGE2-21" value="update question" style="html=1;verticalAlign=bottom;endArrow=block;curved=0;rounded=0;strokeColor=default;align=center;fontFamily=Helvetica;fontSize=11;fontColor=default;labelBackgroundColor=default;" edge="1" parent="1" source="8IvI-AlmYOoEdXCAKGE2-12" target="8IvI-AlmYOoEdXCAKGE2-9">
          <mxGeometry x="-0.003" width="80" relative="1" as="geometry">
            <mxPoint x="470" y="540" as="sourcePoint" />
            <mxPoint x="627" y="540" as="targetPoint" />
            <Array as="points">
              <mxPoint x="557" y="540" />
            </Array>
            <mxPoint as="offset" />
          </mxGeometry>
        </mxCell>
        <mxCell id="8IvI-AlmYOoEdXCAKGE2-22" value="updated successful" style="html=1;verticalAlign=bottom;endArrow=open;dashed=1;endSize=8;curved=0;rounded=0;strokeColor=default;align=center;fontFamily=Helvetica;fontSize=11;fontColor=default;labelBackgroundColor=default;" edge="1" parent="1" source="8IvI-AlmYOoEdXCAKGE2-9" target="8IvI-AlmYOoEdXCAKGE2-12">
          <mxGeometry relative="1" as="geometry">
            <mxPoint x="712" y="584" as="sourcePoint" />
            <mxPoint x="554" y="584" as="targetPoint" />
            <Array as="points">
              <mxPoint x="630" y="570" />
            </Array>
          </mxGeometry>
        </mxCell>
        <mxCell id="8IvI-AlmYOoEdXCAKGE2-23" value="navigate to view question" style="html=1;align=left;spacingLeft=2;endArrow=block;rounded=0;edgeStyle=orthogonalEdgeStyle;curved=0;rounded=0;strokeColor=default;verticalAlign=middle;fontFamily=Helvetica;fontSize=11;fontColor=default;labelBackgroundColor=default;" edge="1" parent="1">
          <mxGeometry x="-0.0019" relative="1" as="geometry">
            <mxPoint x="470" y="600.04" as="sourcePoint" />
            <Array as="points">
              <mxPoint x="497" y="600.04" />
              <mxPoint x="497" y="640.04" />
            </Array>
            <mxPoint x="470" y="640.04" as="targetPoint" />
            <mxPoint as="offset" />
          </mxGeometry>
        </mxCell>
      </root>
    </mxGraphModel>
  </diagram>
  <diagram id="cPa1NXfpZ-gYGMWm0NXj" name="delete-question">
    <mxGraphModel dx="1026" dy="772" grid="1" gridSize="10" guides="1" tooltips="1" connect="1" arrows="1" fold="1" page="1" pageScale="1" pageWidth="827" pageHeight="1169" math="0" shadow="0">
      <root>
        <mxCell id="0" />
        <mxCell id="1" parent="0" />
        <mxCell id="9qIhWf2CUfelXAUl6YzR-1" value="Teacher" style="shape=umlLifeline;perimeter=lifelinePerimeter;whiteSpace=wrap;html=1;container=1;dropTarget=0;collapsible=0;recursiveResize=0;outlineConnect=0;portConstraint=eastwest;newEdgeStyle={&quot;curved&quot;:0,&quot;rounded&quot;:0};participant=umlActor;fontFamily=Helvetica;fontSize=11;fontColor=default;labelBackgroundColor=default;" vertex="1" parent="1">
          <mxGeometry x="120" y="100" width="20" height="300" as="geometry" />
        </mxCell>
        <mxCell id="9qIhWf2CUfelXAUl6YzR-2" value="UI" style="shape=umlLifeline;perimeter=lifelinePerimeter;whiteSpace=wrap;html=1;container=1;dropTarget=0;collapsible=0;recursiveResize=0;outlineConnect=0;portConstraint=eastwest;newEdgeStyle={&quot;curved&quot;:0,&quot;rounded&quot;:0};participant=umlBoundary;fontFamily=Helvetica;fontSize=11;fontColor=default;labelBackgroundColor=default;" vertex="1" parent="1">
          <mxGeometry x="273" y="100" width="50" height="300" as="geometry" />
        </mxCell>
        <mxCell id="9qIhWf2CUfelXAUl6YzR-3" value="" style="html=1;points=[[0,0,0,0,5],[0,1,0,0,-5],[1,0,0,0,5],[1,1,0,0,-5]];perimeter=orthogonalPerimeter;outlineConnect=0;targetShapes=umlLifeline;portConstraint=eastwest;newEdgeStyle={&quot;curved&quot;:0,&quot;rounded&quot;:0};fontFamily=Helvetica;fontSize=11;fontColor=default;labelBackgroundColor=default;" vertex="1" parent="9qIhWf2CUfelXAUl6YzR-2">
          <mxGeometry x="20" y="90" width="10" height="60" as="geometry" />
        </mxCell>
        <mxCell id="9qIhWf2CUfelXAUl6YzR-6" value="Question" style="shape=umlLifeline;perimeter=lifelinePerimeter;whiteSpace=wrap;html=1;container=1;dropTarget=0;collapsible=0;recursiveResize=0;outlineConnect=0;portConstraint=eastwest;newEdgeStyle={&quot;curved&quot;:0,&quot;rounded&quot;:0};participant=umlEntity;fontFamily=Helvetica;fontSize=11;fontColor=default;labelBackgroundColor=default;" vertex="1" parent="1">
          <mxGeometry x="613" y="100" width="40" height="300" as="geometry" />
        </mxCell>
        <mxCell id="9qIhWf2CUfelXAUl6YzR-8" value="" style="html=1;points=[[0,0,0,0,5],[0,1,0,0,-5],[1,0,0,0,5],[1,1,0,0,-5]];perimeter=orthogonalPerimeter;outlineConnect=0;targetShapes=umlLifeline;portConstraint=eastwest;newEdgeStyle={&quot;curved&quot;:0,&quot;rounded&quot;:0};fontFamily=Helvetica;fontSize=11;fontColor=default;labelBackgroundColor=default;" vertex="1" parent="9qIhWf2CUfelXAUl6YzR-6">
          <mxGeometry x="15" y="130" width="10" height="70" as="geometry" />
        </mxCell>
        <mxCell id="9qIhWf2CUfelXAUl6YzR-9" value="View Controller" style="shape=umlLifeline;perimeter=lifelinePerimeter;whiteSpace=wrap;html=1;container=1;dropTarget=0;collapsible=0;recursiveResize=0;outlineConnect=0;portConstraint=eastwest;newEdgeStyle={&quot;curved&quot;:0,&quot;rounded&quot;:0};participant=umlControl;fontFamily=Helvetica;fontSize=11;fontColor=default;labelBackgroundColor=default;" vertex="1" parent="1">
          <mxGeometry x="445" y="100" width="40" height="300" as="geometry" />
        </mxCell>
        <mxCell id="9qIhWf2CUfelXAUl6YzR-10" value="" style="html=1;points=[[0,0,0,0,5],[0,1,0,0,-5],[1,0,0,0,5],[1,1,0,0,-5]];perimeter=orthogonalPerimeter;outlineConnect=0;targetShapes=umlLifeline;portConstraint=eastwest;newEdgeStyle={&quot;curved&quot;:0,&quot;rounded&quot;:0};fontFamily=Helvetica;fontSize=11;fontColor=default;labelBackgroundColor=default;" vertex="1" parent="9qIhWf2CUfelXAUl6YzR-9">
          <mxGeometry x="15" y="100" width="10" height="150" as="geometry" />
        </mxCell>
        <mxCell id="9qIhWf2CUfelXAUl6YzR-12" value="click delete" style="html=1;verticalAlign=bottom;endArrow=block;curved=0;rounded=0;strokeColor=default;align=center;fontFamily=Helvetica;fontSize=11;fontColor=default;labelBackgroundColor=default;" edge="1" parent="1" source="9qIhWf2CUfelXAUl6YzR-1" target="9qIhWf2CUfelXAUl6YzR-3">
          <mxGeometry width="80" relative="1" as="geometry">
            <mxPoint x="129.63043478260875" y="200.0000000000001" as="sourcePoint" />
            <mxPoint x="260" y="200.0000000000001" as="targetPoint" />
            <Array as="points">
              <mxPoint x="190" y="200" />
            </Array>
          </mxGeometry>
        </mxCell>
        <mxCell id="9qIhWf2CUfelXAUl6YzR-13" value="request for delete question" style="html=1;verticalAlign=bottom;endArrow=block;curved=0;rounded=0;strokeColor=default;align=center;fontFamily=Helvetica;fontSize=11;fontColor=default;labelBackgroundColor=default;" edge="1" parent="1" source="9qIhWf2CUfelXAUl6YzR-3" target="9qIhWf2CUfelXAUl6YzR-10">
          <mxGeometry x="0.0009" width="80" relative="1" as="geometry">
            <mxPoint x="280" y="220" as="sourcePoint" />
            <mxPoint x="410" y="220" as="targetPoint" />
            <Array as="points">
              <mxPoint x="340" y="220" />
            </Array>
            <mxPoint as="offset" />
          </mxGeometry>
        </mxCell>
        <mxCell id="9qIhWf2CUfelXAUl6YzR-14" value="request for delete question" style="html=1;verticalAlign=bottom;endArrow=block;curved=0;rounded=0;strokeColor=default;align=center;fontFamily=Helvetica;fontSize=11;fontColor=default;labelBackgroundColor=default;" edge="1" parent="1" source="9qIhWf2CUfelXAUl6YzR-10" target="9qIhWf2CUfelXAUl6YzR-8">
          <mxGeometry x="0.0009" width="80" relative="1" as="geometry">
            <mxPoint x="414" y="240" as="sourcePoint" />
            <mxPoint x="553" y="240" as="targetPoint" />
            <Array as="points">
              <mxPoint x="484" y="240" />
            </Array>
            <mxPoint as="offset" />
          </mxGeometry>
        </mxCell>
        <mxCell id="9qIhWf2CUfelXAUl6YzR-15" value="deleted successul" style="html=1;verticalAlign=bottom;endArrow=open;dashed=1;endSize=8;curved=0;rounded=0;strokeColor=default;align=center;fontFamily=Helvetica;fontSize=11;fontColor=default;labelBackgroundColor=default;" edge="1" parent="1" source="9qIhWf2CUfelXAUl6YzR-8">
          <mxGeometry x="0.0031" relative="1" as="geometry">
            <mxPoint x="628" y="270" as="sourcePoint" />
            <mxPoint x="470" y="270" as="targetPoint" />
            <mxPoint as="offset" />
          </mxGeometry>
        </mxCell>
        <mxCell id="9qIhWf2CUfelXAUl6YzR-22" value="navigate to view question" style="html=1;align=left;spacingLeft=2;endArrow=block;rounded=0;edgeStyle=orthogonalEdgeStyle;curved=0;rounded=0;strokeColor=default;verticalAlign=middle;fontFamily=Helvetica;fontSize=11;fontColor=default;labelBackgroundColor=default;" edge="1" parent="1">
          <mxGeometry x="-0.0019" relative="1" as="geometry">
            <mxPoint x="470" y="300.03999999999996" as="sourcePoint" />
            <Array as="points">
              <mxPoint x="497" y="300.03999999999996" />
              <mxPoint x="497" y="340.03999999999996" />
            </Array>
            <mxPoint x="470" y="340.03999999999996" as="targetPoint" />
            <mxPoint as="offset" />
          </mxGeometry>
        </mxCell>
      </root>
    </mxGraphModel>
  </diagram>
</mxfile>
